/vscmnt/brussel_pixiu_data/_data_brussel/112/vsc11236/PredSimResults/SUBJ06opt3D/weighted-expIG/worker_04.mot
version=1
nRows=4
nColumns=50
inDegrees=yes
endheader
                time	         pelvis_tilt	         pelvis_list	     pelvis_rotation	           pelvis_tx	           pelvis_ty	           pelvis_tz	       hip_flexion_r	     hip_adduction_r	      hip_rotation_r	        knee_angle_r	       ankle_angle_r	         mtp_angle_r	       hip_flexion_l	     hip_adduction_l	      hip_rotation_l	        knee_angle_l	       ankle_angle_l	         mtp_angle_l	    lumbar_extension	      lumbar_bending	     lumbar_rotation	 ercspn_r/activation	 intobl_r/activation	 extobl_r/activation	    abd_r/activation	    add_r/activation	hamstrings_r/activation	bifemsh_r/activation	glut_max_r/activation	iliopsoas_r/activation	rect_fem_r/activation	  vasti_r/activation	gastroc_r/activation	 soleus_r/activation	tib_ant_r/activation	 ercspn_l/activation	 intobl_l/activation	 extobl_l/activation	    abd_l/activation	    add_l/activation	hamstrings_l/activation	bifemsh_l/activation	glut_max_l/activation	iliopsoas_l/activation	rect_fem_l/activation	  vasti_l/activation	gastroc_l/activation	 soleus_l/activation	tib_ant_l/activation	
          1.23292388	         -6.69115750	         -0.73088140	          3.75064474	          1.36854550	          0.92854363	         -0.01054609	         32.73803563	         -0.94117570	         -5.66823132	         -7.25408904	          0.31331414	          0.22665420	         -8.95375080	         -0.08461644	         -5.32827986	        -10.75656182	          9.81195812	         32.31414486	         -5.11522375	         -0.53463913	         -8.16462259	          0.19449328	          0.14752224	          0.01000023	          0.01000010	          0.29690029	          0.07655858	          0.12347964	          0.01218043	          0.12451911	          0.01283021	          0.01000013	          0.01000048	          0.01000003	          0.51810742	          0.11778042	          0.01000002	          0.01000010	          0.09731771	          0.01000061	          0.01000043	          0.29570932	          0.01583527	          0.69423280	          0.01013724	          0.01000010	          0.25923942	          0.41622722	          0.02545723	
          1.24525311	         -6.80130181	         -0.66234981	          3.77093417	          1.38513220	          0.92656432	         -0.00960832	         33.06573605	         -0.78573058	         -5.50494754	         -9.24669512	          0.02306682	          0.22157455	         -9.34775247	         -0.17267926	         -5.72110107	        -11.66379746	          8.95633456	         34.22761549	         -4.78170865	         -0.19329966	         -8.69795769	          0.17759043	          0.12237564	          0.01000024	          0.01000000	          0.42328342	          0.07872925	          0.10243145	          0.08008314	          0.10329359	          0.01064340	          0.01000016	          0.01454386	          0.01751810	          0.52403712	          0.16862073	          0.01000003	          0.01000007	          0.08072894	          0.01000091	          0.01000052	          0.26560373	          0.01453180	          0.71562459	          0.01205414	          0.01000014	          0.23527250	          0.39692668	          0.02111779	
          1.25758235	         -6.88487712	         -0.64438775	          3.78075695	          1.40223224	          0.92482637	         -0.00864357	         33.17376617	         -0.66678087	         -5.15247615	        -11.17227078	         -0.19720445	          0.19440885	         -9.61563784	         -0.34434990	         -6.10204687	        -12.88215176	          7.95567421	         36.22105496	         -4.41485349	          0.21257425	         -9.18682552	          0.14731846	          0.10151553	          0.01000019	          0.01712638	          0.35113070	          0.08362241	          0.08497113	          0.11168371	          0.08568618	          0.01000012	          0.01000011	          0.01206505	          0.01453201	          0.56483019	          0.16465753	          0.01000003	          0.01000014	          0.06696790	          0.01000495	          0.01296130	          0.24009148	          0.01205510	          0.69145866	          0.01000068	          0.01000009	          0.19516809	          0.36884921	          0.01751806	
          1.26991159	         -6.94538685	         -0.66970728	          3.77041202	          1.41962858	          0.92339938	         -0.00754943	         33.10649015	         -0.52794955	         -4.94815545	        -12.84378145	         -0.51910748	          0.18015272	         -9.68688101	         -0.60188396	         -6.48494029	        -14.50163714	          6.78109655	         38.29025211	         -4.04024689	          0.65943975	         -9.62192907	          0.15175452	          0.08421121	          0.01000021	          0.05312151	          0.32883632	          0.08411414	          0.07048708	          0.13793379	          0.07108012	          0.01000015	          0.02693887	          0.01000863	          0.01205491	          0.60507930	          0.16727793	          0.01000002	          0.01000010	          0.05555256	          0.01000081	          0.01075264	          0.21519932	          0.01000038	          0.64614893	          0.01000074	          0.01000005	          0.16189977	          0.34093019	          0.01453194	
